<?xml version="1.0" standalone="no"?>
<!DOCTYPE svg PUBLIC "-//W3C//DTD SVG 20010904//EN"
 "http://www.w3.org/TR/2001/REC-SVG-20010904/DTD/svg10.dtd">
<svg version="1.0" xmlns="http://www.w3.org/2000/svg"
 width="30.000000pt" height="30.000000pt" viewBox="0 0 30.000000 30.000000"
 preserveAspectRatio="xMidYMid meet">
<metadata>
Created by potrace 1.16, written by Peter Selinger 2001-2019
</metadata>
<g transform="translate(0.000000,30.000000) scale(0.003571,-0.003492)"
fill="#000000" stroke="none">
<path d="M1660 8423 c-25 -2 -54 -8 -65 -13 -11 -5 -46 -12 -77 -15 -32 -4
-58 -11 -58 -16 0 -5 -18 -9 -40 -9 -22 0 -40 -4 -40 -9 0 -5 -25 -13 -55 -16
-30 -4 -55 -11 -55 -16 0 -5 -6 -9 -12 -9 -7 0 -40 -14 -73 -30 -33 -16 -68
-30 -77 -30 -10 0 -18 -3 -18 -8 0 -8 -73 -42 -90 -42 -6 0 -10 -3 -10 -8 0
-4 -17 -16 -37 -27 -21 -11 -44 -26 -51 -32 -7 -7 -18 -13 -24 -13 -6 0 -21
-11 -34 -25 -13 -14 -27 -25 -33 -25 -11 0 -46 -28 -102 -82 -21 -21 -43 -38
-48 -38 -11 0 -121 -108 -121 -118 0 -4 -23 -31 -50 -60 -28 -30 -50 -58 -50
-63 0 -5 -4 -9 -9 -9 -5 0 -12 -8 -15 -18 -4 -10 -15 -27 -25 -38 -21 -23 -68
-100 -77 -126 -4 -10 -10 -18 -14 -18 -5 0 -11 -13 -15 -30 -4 -16 -11 -30
-16 -30 -5 0 -9 -9 -9 -20 0 -11 -4 -20 -9 -20 -5 0 -12 -13 -16 -30 -4 -16
-11 -30 -16 -30 -5 0 -9 -11 -9 -24 0 -13 -7 -29 -15 -36 -8 -7 -15 -21 -15
-31 0 -10 -4 -20 -9 -23 -5 -4 -12 -25 -16 -49 -3 -23 -10 -52 -16 -64 -5 -13
-13 -33 -18 -45 -5 -13 -13 -49 -16 -80 -4 -32 -10 -60 -15 -63 -4 -2 -10 -42
-13 -87 -10 -134 -12 -5035 -3 -5128 5 -47 12 -89 16 -95 4 -5 11 -39 14 -75
7 -65 9 -72 40 -143 9 -21 16 -49 16 -62 0 -14 4 -25 10 -25 5 0 13 -18 16
-40 4 -22 10 -40 15 -40 5 0 9 -11 9 -25 0 -14 5 -25 10 -25 6 0 10 -6 10 -14
0 -8 6 -21 13 -28 10 -11 26 -39 72 -129 5 -10 13 -19 17 -19 5 0 8 -4 8 -9 0
-14 80 -128 118 -169 17 -19 32 -38 32 -43 0 -11 212 -219 223 -219 5 0 27
-18 48 -40 22 -22 46 -40 54 -40 8 0 15 -4 15 -9 0 -5 8 -11 18 -15 24 -8 56
-29 65 -43 4 -7 15 -13 22 -13 8 0 15 -4 15 -10 0 -5 9 -10 19 -10 11 0 22 -4
26 -9 7 -12 64 -41 80 -41 7 0 24 -9 38 -20 14 -11 35 -20 46 -20 12 0 21 -4
21 -10 0 -5 11 -10 25 -10 14 0 25 -4 25 -9 0 -5 20 -12 45 -15 24 -4 47 -11
50 -17 4 -5 17 -9 31 -9 13 0 24 -4 24 -9 0 -5 26 -13 58 -17 31 -3 62 -10 67
-14 35 -27 606 -36 1332 -20 30 0 39 18 17 36 -17 12 -17 13 -1 8 19 -7 24 12
5 19 -10 4 -10 6 0 6 6 1 12 10 12 20 0 11 -6 22 -12 24 -10 4 -10 6 0 6 19 1
14 39 -5 44 -17 4 -17 5 0 6 9 0 17 7 17 15 0 8 6 17 13 20 10 5 10 7 0 12 -7
3 -13 12 -13 20 0 8 -7 14 -15 14 -8 0 -15 5 -15 10 0 6 7 10 15 10 8 0 15 6
15 14 0 8 6 17 13 20 9 5 9 7 0 12 -10 4 -10 9 1 20 19 18 15 102 -5 115 -11
7 -11 9 4 9 9 0 17 -4 17 -10 0 -5 5 -10 11 -10 18 0 4 24 -22 38 l-24 14 28
-6 c31 -7 35 0 9 21 -9 8 -11 12 -4 8 15 -8 44 13 36 27 -3 5 -11 5 -19 -2 -9
-8 -14 -6 -19 5 -3 9 0 15 9 15 21 0 19 18 -2 23 -17 4 -17 5 0 6 18 1 25 21
7 21 -5 0 -9 15 -9 33 2 31 2 31 6 4 6 -41 27 -28 35 23 4 24 13 47 20 52 10
6 10 10 -2 18 -8 5 -10 10 -4 10 7 0 15 11 18 25 4 14 11 25 16 25 15 0 12 37
-4 43 -9 4 -12 14 -9 26 3 12 1 21 -6 21 -6 0 -11 -6 -11 -12 0 -10 -2 -10 -9
0 -6 10 -42 15 -122 17 -63 2 -141 9 -174 15 -33 6 -79 14 -102 17 -24 3 -43
9 -43 14 0 5 -18 9 -40 9 -22 0 -40 3 -40 8 0 4 -19 12 -42 18 -43 11 -85 26
-143 49 -16 7 -47 19 -67 26 -21 7 -38 17 -38 21 0 4 -6 8 -14 8 -8 0 -21 6
-28 13 -7 7 -28 19 -46 26 -18 8 -51 27 -72 42 -22 16 -46 29 -54 29 -8 0 -16
3 -18 8 -1 4 -39 34 -83 67 -44 32 -134 114 -200 180 -129 130 -155 160 -155
175 0 6 -5 10 -10 10 -6 0 -15 11 -20 25 -5 14 -14 25 -20 25 -5 0 -10 7 -10
15 0 8 -4 15 -10 15 -5 0 -10 7 -10 15 0 8 -4 15 -10 15 -5 0 -10 6 -10 14 0
8 -6 21 -14 28 -7 8 -17 24 -20 36 -4 12 -12 22 -17 22 -5 0 -9 7 -9 15 0 8
-4 15 -10 15 -5 0 -10 6 -10 13 0 7 -14 39 -31 72 -38 73 -79 181 -79 206 0
11 -4 19 -8 19 -17 0 -72 220 -72 289 0 28 -4 51 -10 51 -6 0 -10 37 -10 90 0
50 -3 90 -7 90 -9 0 -7 2800 2 2935 3 50 10 99 14 110 5 11 14 54 20 95 18
119 23 140 32 146 5 3 9 15 9 27 0 13 6 31 13 42 8 11 17 35 20 52 4 18 16 52
27 75 11 23 20 47 20 52 0 6 14 31 30 56 16 25 30 53 30 63 0 9 3 17 8 17 4 0
13 15 21 33 8 17 28 50 46 72 18 22 35 49 39 60 3 11 19 34 36 52 16 18 30 36
30 42 0 5 4 11 8 13 5 2 29 29 55 61 60 74 164 172 248 235 24 18 67 50 95 72
29 22 58 40 66 40 7 0 28 14 46 30 18 17 41 30 51 30 9 0 27 9 39 20 12 11 36
23 53 27 17 3 33 12 36 19 3 8 13 14 22 14 9 0 39 11 66 25 28 13 62 25 77 25
15 0 29 4 32 9 3 5 16 11 28 14 13 3 55 15 93 27 39 11 108 26 155 33 116 16
3052 16 3155 -1 82 -13 175 -36 204 -51 11 -6 29 -11 40 -11 12 0 21 -3 21 -8
0 -7 28 -16 120 -39 14 -3 45 -19 70 -33 25 -15 62 -34 83 -41 20 -7 37 -17
37 -21 0 -4 6 -8 14 -8 8 0 21 -6 28 -13 7 -6 30 -21 51 -32 20 -11 37 -23 37
-27 0 -5 6 -8 13 -8 6 0 26 -13 44 -28 18 -15 49 -38 68 -52 20 -14 53 -40 72
-58 20 -18 54 -48 75 -66 21 -19 38 -36 38 -39 0 -3 26 -32 58 -64 31 -32 68
-75 82 -95 14 -21 28 -38 33 -38 4 0 7 -7 7 -15 0 -8 5 -15 10 -15 6 0 14 -8
18 -17 7 -18 62 -104 72 -113 3 -3 19 -32 34 -65 16 -33 32 -67 37 -75 27 -47
69 -144 69 -159 0 -10 3 -21 7 -25 16 -16 62 -162 75 -236 46 -275 48 -342 52
-1754 4 -1241 5 -1351 21 -1362 11 -8 12 -13 4 -16 -15 -5 -5 -38 11 -38 5 0
10 8 10 18 0 14 2 15 10 2 5 -8 24 -14 42 -15 28 0 33 -4 36 -27 3 -24 6 -26
38 -21 19 3 34 1 34 -4 0 -6 -11 -8 -25 -5 -15 2 -25 0 -25 -7 0 -6 4 -11 9
-11 5 0 16 -3 24 -6 8 -3 22 2 31 11 12 13 16 13 16 3 0 -25 53 -67 81 -64 23
3 26 0 23 -26 -3 -23 0 -28 14 -26 11 2 16 -3 14 -13 -2 -12 5 -16 23 -16 18
0 25 4 21 13 -3 8 -1 14 4 14 6 0 10 -11 10 -25 0 -14 6 -25 13 -25 8 0 8 -3
-2 -9 -12 -8 -12 -12 2 -25 19 -20 31 -21 24 -3 -3 8 -1 20 4 28 7 11 9 9 9
-8 0 -26 61 -94 68 -75 2 7 16 12 31 12 25 0 27 -3 26 -37 0 -29 4 -38 16 -37
9 1 16 -6 15 -15 -1 -11 7 -15 26 -14 20 1 25 -2 21 -13 -3 -8 -1 -14 5 -14 6
0 12 6 15 13 2 6 8 8 13 4 5 -5 1 -14 -9 -21 -23 -18 -22 -29 3 -21 13 4 20 2
20 -7 0 -8 14 -27 30 -43 17 -16 30 -33 30 -38 0 -4 6 -15 14 -22 10 -10 16
-11 25 -2 8 8 11 7 11 -6 0 -11 8 -17 25 -17 22 0 25 -4 25 -35 0 -41 17 -47
23 -7 4 25 4 25 6 -5 1 -33 16 -45 24 -20 2 6 2 1 0 -13 -3 -14 -10 -28 -16
-32 -6 -4 -8 -10 -5 -13 10 -10 28 4 38 29 8 20 9 20 9 -5 1 -15 8 -32 16 -39
13 -10 14 274 11 2352 -2 1861 -5 2382 -16 2451 -7 48 -16 87 -20 87 -4 0 -11
21 -15 48 -7 50 -24 110 -37 127 -4 6 -10 30 -14 53 -4 23 -10 42 -14 42 -5 0
-16 23 -26 50 -10 28 -21 50 -26 50 -4 0 -10 15 -13 34 -4 19 -15 43 -26 55
-10 11 -19 25 -19 30 0 5 -6 16 -12 23 -7 7 -22 31 -33 53 -11 22 -26 46 -32
53 -7 7 -13 18 -13 23 0 5 -11 22 -25 37 -14 15 -25 30 -25 33 0 4 -24 31 -52
61 -29 30 -64 69 -78 87 -14 17 -30 31 -37 31 -7 0 -13 6 -13 13 0 7 -10 19
-22 27 -12 8 -39 32 -60 52 -20 20 -51 44 -68 54 -16 10 -30 22 -30 26 0 4 -6
8 -14 8 -8 0 -23 11 -34 25 -11 14 -27 25 -35 25 -9 0 -20 6 -24 13 -4 6 -25
20 -45 29 -21 10 -38 22 -38 27 0 5 -16 12 -35 15 -19 4 -35 11 -35 16 0 6 -7
10 -15 10 -8 0 -15 4 -15 10 0 5 -18 13 -40 16 -22 4 -40 10 -40 15 0 5 -5 9
-10 9 -6 0 -33 11 -61 25 -28 13 -71 27 -95 31 -24 3 -44 10 -44 15 0 5 -18 9
-40 9 -22 0 -40 4 -40 9 0 5 -26 12 -57 16 -32 3 -67 11 -78 18 -15 9 -606 12
-2575 13 -1405 0 -2575 -1 -2600 -3z"/>
<path d="M3005 6803 c-110 -2 -209 -7 -220 -12 -11 -5 -47 -14 -80 -21 -33 -6
-76 -15 -95 -19 -19 -5 -70 -24 -113 -45 -43 -20 -83 -36 -88 -36 -5 0 -9 -4
-9 -10 0 -5 -5 -10 -12 -10 -10 0 -105 -56 -118 -70 -3 -3 -23 -18 -45 -35
-47 -35 -195 -182 -195 -194 0 -5 -11 -19 -24 -32 -13 -14 -35 -45 -48 -69
-14 -25 -36 -66 -51 -91 -14 -25 -33 -66 -42 -90 -9 -24 -20 -53 -25 -64 -15
-40 -48 -161 -59 -220 -17 -84 -11 -3055 5 -3076 6 -8 14 -27 17 -44 8 -41 31
-119 37 -125 7 -7 31 -69 37 -98 3 -12 9 -22 14 -22 5 0 9 -6 9 -13 0 -8 14
-33 30 -55 17 -23 30 -46 30 -52 0 -9 30 -47 67 -86 7 -7 13 -15 13 -19 0 -7
50 -63 100 -113 48 -47 168 -136 208 -153 17 -8 32 -17 32 -21 0 -5 5 -8 12
-8 6 0 32 -12 57 -27 47 -28 109 -50 169 -60 18 -3 35 -9 38 -14 3 -5 20 -9
38 -9 17 0 36 -4 42 -10 5 -5 50 -14 99 -20 106 -12 475 -14 475 -2 0 4 -5 13
-12 20 -12 12 3 17 45 13 22 -3 22 8 0 25 -10 7 -15 16 -11 20 5 4 17 -3 28
-16 22 -25 41 -20 20 5 -7 9 -14 31 -16 48 -1 18 0 24 3 15 6 -22 17 -23 33
-2 11 13 10 16 -11 21 l-24 7 25 6 c18 4 26 14 28 33 2 18 9 27 20 26 11 0 12
-3 5 -6 -23 -9 -14 -20 17 -21 36 -1 37 4 8 29 l-21 19 21 0 c14 0 22 6 22 18
0 13 2 14 9 3 7 -10 13 -7 27 13 11 15 27 36 37 48 20 25 22 45 5 51 -7 2 -3
2 10 0 12 -2 22 1 22 7 0 5 -5 10 -10 10 -6 0 -5 6 2 14 7 8 15 10 16 5 8 -20
22 -7 16 15 -3 13 -1 27 5 30 7 4 8 1 5 -8 -3 -9 -2 -16 4 -16 14 0 22 24 15
52 l-6 23 20 -22 c21 -24 41 -20 22 4 -9 10 -8 13 5 13 11 0 16 9 16 31 0 19
4 28 11 24 14 -9 59 3 59 15 0 6 -12 8 -27 5 -27 -5 -27 -5 -4 5 13 6 32 8 41
5 20 -6 47 20 30 30 -5 3 -10 16 -9 28 0 15 2 17 6 7 9 -22 33 -43 41 -36 3 4
2 10 -4 14 -10 7 -26 62 -17 62 2 0 8 -12 13 -26 12 -31 25 -25 35 18 4 18 9
27 12 21 2 -7 9 -13 15 -13 6 0 8 7 4 15 -3 9 0 15 10 15 9 0 14 6 11 13 -5
12 -11 13 -38 2 -9 -3 -23 1 -31 9 -8 8 -32 18 -52 21 -20 4 -39 11 -42 16 -3
5 -20 9 -39 9 -19 0 -37 5 -40 10 -3 6 -21 10 -40 10 -18 0 -40 7 -49 15 -8 8
-22 15 -32 15 -10 0 -25 6 -33 14 -9 7 -44 24 -79 36 -55 20 -73 30 -120 71
-7 6 -25 8 -38 5 -14 -4 -23 -3 -20 2 3 4 -4 15 -16 23 -11 8 -26 19 -32 24
-6 6 -31 24 -56 40 -68 45 -69 46 -125 100 -29 28 -56 50 -61 48 -5 -2 -16 6
-24 18 -8 12 -32 39 -52 61 -21 22 -38 44 -38 49 0 5 -6 9 -13 9 -8 0 -22 16
-33 35 -10 19 -22 35 -26 35 -5 0 -8 5 -8 10 0 6 -11 21 -25 34 -14 13 -25 28
-25 33 0 6 -13 27 -29 47 -17 21 -36 51 -43 67 -7 16 -16 29 -20 29 -4 0 -10
16 -14 35 -3 19 -11 35 -18 35 -12 0 -36 45 -36 67 0 7 -4 13 -9 13 -5 0 -12
17 -16 38 -4 20 -10 42 -14 47 -4 6 -15 35 -25 65 -11 30 -22 60 -26 65 -11
15 -29 96 -61 280 -9 49 -20 196 -21 265 -1 111 7 241 19 305 8 44 18 105 23
135 5 30 13 75 19 100 11 45 14 51 45 123 9 21 16 44 16 52 0 8 5 15 10 15 6
0 10 10 10 23 0 12 7 35 15 51 8 15 15 35 15 42 0 8 4 14 8 14 5 0 19 21 32
48 13 26 26 49 29 52 4 3 17 26 30 53 13 26 28 47 32 47 5 0 15 12 23 28 8 15
25 39 37 54 13 15 53 60 89 101 36 41 76 81 90 90 14 9 43 33 66 54 23 21 56
47 75 57 19 11 40 25 46 32 21 20 116 72 146 79 15 4 27 11 27 16 0 9 87 51
130 63 28 8 47 15 103 40 21 9 44 16 52 16 9 0 23 4 33 10 19 10 90 27 167 40
96 15 280 38 320 40 169 5 282 -1 400 -21 33 -6 81 -13 108 -16 26 -3 47 -9
47 -14 0 -5 11 -9 25 -9 30 0 103 -24 169 -56 28 -13 57 -24 65 -25 9 0 43
-15 76 -34 33 -18 80 -44 105 -56 25 -13 47 -27 50 -30 3 -3 23 -18 46 -32 22
-14 47 -31 55 -39 8 -7 25 -20 39 -29 44 -29 193 -169 265 -250 41 -46 115
-146 115 -155 0 -4 9 -17 19 -28 11 -12 30 -42 44 -68 14 -26 33 -59 44 -75
22 -32 56 -105 82 -178 6 -16 16 -43 22 -60 32 -80 48 -132 49 -152 0 -12 4
-24 9 -28 5 -3 12 -36 16 -73 3 -37 13 -98 21 -137 11 -52 14 -119 11 -265 -2
-107 -6 -206 -10 -220 -3 -14 -11 -59 -18 -100 -7 -41 -16 -79 -21 -84 -4 -6
-8 -21 -8 -35 0 -24 -19 -90 -39 -136 -11 -26 -40 -94 -50 -120 -24 -59 -74
-154 -82 -157 -6 -2 -11 -20 -12 -40 -1 -20 -5 -34 -10 -31 -13 8 -37 -25 -37
-51 0 -20 -4 -24 -17 -20 -11 4 -14 3 -7 -3 6 -4 14 -18 18 -30 7 -23 26 -32
26 -13 0 6 -4 10 -10 10 -5 0 -10 7 -10 16 0 14 3 14 15 4 13 -11 18 -10 29 5
17 24 46 13 39 -14 -10 -39 28 -14 47 31 10 22 10 21 5 -4 -5 -28 9 -39 18
-15 4 9 6 9 6 0 1 -7 6 -13 11 -13 6 0 9 10 7 23 -2 12 -2 16 0 9 3 -8 11 -11
19 -8 16 6 19 -10 4 -19 -6 -4 -8 -11 -5 -16 7 -10 35 14 35 30 0 6 7 8 15 5
10 -4 15 0 16 12 0 12 3 14 6 6 3 -7 -2 -21 -11 -31 -25 -28 -7 -32 21 -5 14
14 28 22 32 18 3 -4 0 -9 -6 -11 -13 -5 -19 -33 -7 -33 10 0 34 28 34 39 0 6
4 11 10 11 5 0 7 -7 4 -15 -8 -20 3 -19 23 1 15 14 18 13 38 -10 27 -32 37
-33 33 -4 -2 16 3 22 20 23 20 1 21 0 7 -15 -8 -9 -12 -20 -9 -23 4 -4 15 3
25 15 11 11 19 16 19 10 0 -7 5 -12 11 -12 6 0 8 7 5 18 -4 9 5 4 19 -12 l25
-29 20 23 c15 17 20 19 20 7 0 -8 -6 -17 -12 -20 -7 -2 -10 -7 -7 -11 12 -12
39 6 39 27 0 20 0 20 18 -1 17 -20 20 -20 35 -5 9 9 20 13 24 9 5 -5 2 -11 -4
-13 -36 -13 -4 -21 70 -19 45 2 77 1 71 -1 -9 -3 -9 -10 0 -28 12 -27 26 -33
26 -12 0 8 13 12 40 10 l40 -2 -3 1297 c-2 844 -7 1314 -14 1347 -15 74 -40
161 -52 184 -6 11 -11 31 -11 45 0 14 -4 26 -9 26 -5 0 -12 12 -16 27 -3 15
-15 39 -26 54 -10 15 -19 30 -19 35 0 13 -64 108 -87 130 -13 12 -23 24 -23
28 0 17 -123 143 -190 196 -25 19 -50 39 -57 45 -29 24 -40 31 -78 50 -22 11
-41 23 -43 28 -2 4 -10 7 -18 7 -8 0 -32 11 -54 25 -23 14 -54 28 -70 32 -17
3 -33 10 -36 14 -3 5 -20 9 -39 9 -19 0 -36 4 -39 9 -4 5 -30 12 -59 16 -28 4
-58 12 -66 19 -10 8 -336 11 -1230 11 -669 0 -1306 -1 -1416 -2z m-362 -440
c26 -9 47 -21 47 -25 0 -4 9 -8 20 -8 35 0 127 -86 155 -145 8 -19 20 -37 25
-40 6 -3 10 -17 10 -30 0 -13 5 -27 10 -30 6 -3 10 -48 10 -101 0 -56 -4 -94
-10 -94 -5 0 -10 -13 -10 -29 0 -16 -7 -34 -15 -41 -8 -7 -15 -18 -15 -25 0
-8 -3 -15 -7 -17 -5 -1 -20 -22 -35 -44 -15 -23 -44 -52 -65 -65 -21 -13 -40
-25 -43 -28 -14 -16 -75 -41 -99 -41 -15 0 -32 -5 -38 -11 -16 -16 -187 4
-213 25 -8 7 -32 21 -52 31 -21 11 -38 23 -38 27 0 5 -7 8 -15 8 -8 0 -15 5
-15 11 0 13 -25 39 -38 39 -5 0 -12 8 -16 18 -3 9 -10 24 -15 32 -5 8 -13 26
-18 40 -6 14 -18 42 -27 63 -21 49 -22 166 -1 193 8 10 15 29 15 42 0 12 4 22
9 22 5 0 11 14 15 31 7 37 127 159 157 159 10 0 19 4 19 8 0 8 16 14 95 37 34
11 156 3 198 -12z"/>
<path d="M4070 5223 c-133 -25 -225 -45 -242 -54 -10 -5 -26 -9 -37 -9 -10 0
-24 -7 -31 -15 -7 -8 -21 -15 -31 -15 -11 0 -19 -4 -19 -10 0 -5 -5 -10 -12
-10 -13 0 -111 -61 -116 -72 -2 -5 -8 -8 -13 -8 -22 0 -143 -140 -182 -210
-46 -82 -77 -162 -77 -197 0 -12 -4 -25 -10 -28 -5 -3 -10 -21 -10 -38 0 -18
-7 -57 -15 -87 -17 -63 -20 -242 -5 -270 6 -11 13 -46 17 -80 3 -33 9 -60 13
-60 5 0 11 -22 15 -50 4 -27 11 -52 16 -56 5 -3 9 -13 9 -23 0 -10 7 -24 15
-31 8 -7 15 -21 15 -31 0 -11 4 -19 9 -19 5 0 11 -10 15 -22 3 -13 17 -36 31
-52 14 -16 25 -35 25 -43 0 -7 7 -13 15 -13 8 0 15 -7 15 -15 0 -8 5 -15 10
-15 6 0 10 -5 10 -10 0 -10 78 -90 88 -90 2 0 14 -10 26 -23 24 -25 95 -75
141 -97 17 -8 34 -21 38 -27 4 -7 17 -13 27 -13 11 0 20 -4 20 -9 0 -5 19 -12
42 -16 23 -4 49 -11 58 -15 38 -20 183 -45 260 -45 85 0 276 30 295 47 5 4 18
8 30 8 18 -1 143 57 155 71 3 3 22 14 42 23 20 10 62 42 94 72 32 30 62 54 66
54 4 0 8 4 8 9 0 5 21 33 48 63 51 57 102 131 102 148 0 6 12 29 26 51 14 23
28 57 31 75 3 19 10 37 14 40 5 3 9 18 9 34 0 16 4 31 8 34 4 2 9 19 10 38 1
18 7 52 13 74 16 61 0 306 -22 328 -5 6 -9 22 -9 37 0 15 -7 40 -15 55 -8 16
-15 36 -15 45 0 8 -4 19 -9 25 -5 5 -23 34 -39 64 -36 70 -56 104 -62 110 -3
3 -21 25 -40 50 -45 58 -77 89 -173 165 -24 19 -52 36 -69 41 -10 4 -18 10
-18 14 0 4 -11 11 -25 14 -14 4 -25 11 -25 16 0 6 -7 10 -15 10 -8 0 -23 4
-33 9 -19 10 -96 31 -194 55 -79 19 -213 19 -318 -1z"/>
</g>
</svg>
